<svg width="60" height="60" viewBox="0 0 60 60" fill="none" xmlns="http://www.w3.org/2000/svg">
<path d="M29.9797 0C13.4222 0 0 13.4312 0 30C0 46.5688 13.4222 60 29.9797 60C46.5372 60 59.9594 46.5688 59.9594 30C59.9594 13.4312 46.5372 0 29.9797 0ZM29.9797 54.375C16.5475 54.375 5.62119 43.44 5.62119 30C5.62119 16.56 16.5475 5.625 29.9797 5.625C43.4118 5.625 54.3382 16.5588 54.3382 30C54.3382 43.4412 43.4106 54.375 29.9797 54.375Z" fill="#F7931A"/>
<path d="M31.5274 30.9737H27.5913V36.825H31.5274C32.3218 36.825 33.0588 36.5025 33.576 35.9612C34.1169 35.4425 34.4392 34.7062 34.4392 33.8875C34.4404 32.2862 33.1276 30.9737 31.5274 30.9737Z" fill="#F7931A"/>
<path d="M29.9797 8.12496C17.9253 8.12496 8.11949 17.9375 8.11949 30C8.11949 42.0625 17.9253 51.875 29.9797 51.875C42.034 51.875 51.8399 42.0612 51.8399 30C51.8399 17.9387 42.0328 8.12496 29.9797 8.12496ZM34.4279 40.13H31.8497V44.185H29.1452V40.13H27.66V44.185H24.9431V40.13H20.1663V37.585H22.802V22.335H20.1663V19.79H24.9431V15.8162H27.66V19.79H29.1452V15.8162H31.8497V19.79H34.1981C35.5097 19.79 36.7189 20.3312 37.582 21.195C38.4452 22.0587 38.9861 23.2687 38.9861 24.5812C38.9861 27.15 36.9599 29.2462 34.4279 29.3612C37.3971 29.3612 39.7918 31.78 39.7918 34.7512C39.7918 37.7112 37.3984 40.13 34.4279 40.13Z" fill="#F7931A"/>
<path d="M33.2662 27.38C33.7384 26.9075 34.0257 26.2737 34.0257 25.56C34.0257 24.1437 32.8752 22.9912 31.4587 22.9912H27.5913V28.14H31.4587C32.1607 28.14 32.8053 27.84 33.2662 27.38Z" fill="#F7931A"/>
</svg>
