<svg width="21" height="21" viewBox="0 0 21 21" fill="none" xmlns="http://www.w3.org/2000/svg">
<path d="M9.76781 3H4.57614C2.91781 3 2.08447 3.84167 2.08447 5.51667L2.08447 18.8333H6.58447L6.58447 15.7083C6.58447 15.3667 6.86781 15.0833 7.20947 15.0833C7.55114 15.0833 7.83447 15.3583 7.83447 15.7083L7.83447 18.8333H12.2511V5.51667C12.2511 3.84167 11.4261 3 9.76781 3ZM9.29281 11.125H5.16781C4.82614 11.125 4.54281 10.8417 4.54281 10.5C4.54281 10.1583 4.82614 9.875 5.16781 9.875H9.29281C9.63447 9.875 9.91781 10.1583 9.91781 10.5C9.91781 10.8417 9.63447 11.125 9.29281 11.125ZM9.29281 8H5.16781C4.82614 8 4.54281 7.71667 4.54281 7.375C4.54281 7.03333 4.82614 6.75 5.16781 6.75H9.29281C9.63447 6.75 9.91781 7.03333 9.91781 7.375C9.91781 7.71667 9.63447 8 9.29281 8Z" fill="#12C4A0"/>
<path d="M19.5008 18.2084H17.6091V15.7084C18.4008 15.45 18.9758 14.7083 18.9758 13.8333V12.1667C18.9758 11.075 18.0841 10.1833 16.9925 10.1833C15.9008 10.1833 15.0091 11.075 15.0091 12.1667V13.8333C15.0091 14.7 15.5758 15.4333 16.3508 15.7V18.2084H1.16748C0.825814 18.2084 0.54248 18.4917 0.54248 18.8334C0.54248 19.175 0.825814 19.4584 1.16748 19.4584H16.9425C16.9591 19.4584 16.9675 19.4667 16.9841 19.4667C17.0008 19.4667 17.0091 19.4584 17.0258 19.4584H19.5008C19.8425 19.4584 20.1258 19.175 20.1258 18.8334C20.1258 18.4917 19.8425 18.2084 19.5008 18.2084Z" fill="#12C4A0"/>
</svg>
