<svg width="16" height="16" viewBox="0 0 16 16" fill="none" xmlns="http://www.w3.org/2000/svg">
<path d="M1.99991 11.3333H9.99991C10.1698 11.3334 10.3333 11.3985 10.4568 11.5152C10.5804 11.6318 10.6547 11.7912 10.6647 11.9608C10.6747 12.1305 10.6195 12.2975 10.5104 12.4278C10.4013 12.5581 10.2466 12.6418 10.0779 12.6619L9.99991 12.6666H1.99991C1.82999 12.6664 1.66656 12.6013 1.543 12.4847C1.41944 12.368 1.34509 12.2086 1.33513 12.039C1.32517 11.8694 1.38036 11.7023 1.48942 11.572C1.59848 11.4417 1.75318 11.358 1.92191 11.3379L1.99991 11.3333ZM1.99991 7.33325H13.9999C14.1698 7.33344 14.3333 7.3985 14.4568 7.51515C14.5804 7.6318 14.6547 7.79122 14.6647 7.96085C14.6747 8.13048 14.6195 8.2975 14.5104 8.42781C14.4013 8.55811 14.2466 8.64185 14.0779 8.66192L13.9999 8.66658H1.99991C1.82999 8.6664 1.66656 8.60133 1.543 8.48469C1.41944 8.36804 1.34509 8.20862 1.33513 8.03899C1.32517 7.86936 1.38036 7.70233 1.48942 7.57203C1.59848 7.44173 1.75318 7.35799 1.92191 7.33792L1.99991 7.33325ZM1.99991 3.33325H11.9999C12.1698 3.33344 12.3333 3.3985 12.4568 3.51515C12.5804 3.6318 12.6547 3.79122 12.6647 3.96085C12.6747 4.13048 12.6195 4.2975 12.5104 4.42781C12.4013 4.55811 12.2466 4.64185 12.0779 4.66192L11.9999 4.66659H1.99991C1.82999 4.6664 1.66656 4.60133 1.543 4.48469C1.41944 4.36804 1.34509 4.20862 1.33513 4.03899C1.32517 3.86936 1.38036 3.70233 1.48942 3.57203C1.59848 3.44173 1.75318 3.35799 1.92191 3.33792L1.99991 3.33325Z" fill="#9596A7"/>
</svg>
