<svg width="24" height="24" viewBox="0 0 24 24" fill="none" xmlns="http://www.w3.org/2000/svg">
<path d="M21 4.9999L3.00004 4.9999C2.81779 5.00047 2.63916 5.05073 2.48336 5.14527C2.32756 5.23982 2.20049 5.37506 2.11584 5.53645C2.03119 5.69783 1.99215 5.87926 2.00293 6.06118C2.01372 6.2431 2.07391 6.41864 2.17704 6.5689L11.177 19.5689C11.55 20.1079 12.448 20.1079 12.822 19.5689L21.822 6.5689C21.9262 6.41895 21.9873 6.24333 21.9987 6.0611C22.01 5.87887 21.9713 5.69702 21.8865 5.53529C21.8018 5.37356 21.6744 5.23814 21.5181 5.14375C21.3618 5.04936 21.1826 4.99961 21 4.9999Z" fill="#12C4A0"/>
</svg>
