<svg width="12" height="12" viewBox="0 0 12 12" fill="none" xmlns="http://www.w3.org/2000/svg">
<path d="M6.94004 6.00012L11.14 1.80679C11.2656 1.68125 11.3361 1.51099 11.3361 1.33346C11.3361 1.15592 11.2656 0.985659 11.14 0.860124C11.0145 0.734588 10.8442 0.664062 10.6667 0.664062C10.4892 0.664062 10.3189 0.734588 10.1934 0.860124L6.00004 5.06012L1.80671 0.860124C1.68117 0.734588 1.51091 0.664063 1.33337 0.664063C1.15584 0.664063 0.985576 0.734588 0.860041 0.860124C0.734505 0.985659 0.66398 1.15592 0.66398 1.33346C0.66398 1.51099 0.734505 1.68125 0.860041 1.80679L5.06004 6.00012L0.860041 10.1935C0.797555 10.2554 0.747959 10.3292 0.714113 10.4104C0.680267 10.4916 0.662842 10.5788 0.662842 10.6668C0.662842 10.7548 0.680267 10.8419 0.714113 10.9232C0.747959 11.0044 0.797555 11.0781 0.860041 11.1401C0.922016 11.2026 0.99575 11.2522 1.07699 11.2861C1.15823 11.3199 1.24537 11.3373 1.33337 11.3373C1.42138 11.3373 1.50852 11.3199 1.58976 11.2861C1.671 11.2522 1.74473 11.2026 1.80671 11.1401L6.00004 6.94012L10.1934 11.1401C10.2553 11.2026 10.3291 11.2522 10.4103 11.2861C10.4916 11.3199 10.5787 11.3373 10.6667 11.3373C10.7547 11.3373 10.8419 11.3199 10.9231 11.2861C11.0043 11.2522 11.0781 11.2026 11.14 11.1401C11.2025 11.0781 11.2521 11.0044 11.286 10.9232C11.3198 10.8419 11.3372 10.7548 11.3372 10.6668C11.3372 10.5788 11.3198 10.4916 11.286 10.4104C11.2521 10.3292 11.2025 10.2554 11.14 10.1935L6.94004 6.00012Z" fill="#9596A7"/>
</svg>
