<svg width="21" height="21" viewBox="0 0 21 21" fill="none" xmlns="http://www.w3.org/2000/svg">
<path d="M5.33447 5.09993C4.99281 5.09993 4.70947 4.8166 4.70947 4.47493V3.0166C4.70947 2.67493 4.99281 2.3916 5.33447 2.3916C5.67614 2.3916 5.95947 2.67493 5.95947 3.0166V4.47493C5.95947 4.82493 5.67614 5.09993 5.33447 5.09993Z" fill="#12C4A0"/>
<path d="M8.66797 5.09993C8.3263 5.09993 8.04297 4.8166 8.04297 4.47493V3.0166C8.04297 2.67493 8.3263 2.3916 8.66797 2.3916C9.00964 2.3916 9.29297 2.67493 9.29297 3.0166V4.47493C9.29297 4.82493 9.00964 5.09993 8.66797 5.09993Z" fill="#12C4A0"/>
<path d="M12.001 5.09993C11.6593 5.09993 11.376 4.8166 11.376 4.47493V3.0166C11.376 2.67493 11.6593 2.3916 12.001 2.3916C12.3426 2.3916 12.626 2.67493 12.626 3.0166V4.47493C12.626 4.82493 12.3426 5.09993 12.001 5.09993Z" fill="#12C4A0"/>
<path d="M18.8763 11.8748C18.8763 9.69147 17.1846 7.9248 15.0513 7.74147C14.4346 6.73314 13.3346 6.0498 12.068 6.0498H5.9263C3.99297 6.0498 2.41797 7.6248 2.41797 9.55814V9.9998H15.5763V9.55814C15.5763 9.3998 15.5513 9.24147 15.5263 9.09147C16.7346 9.4498 17.6263 10.5498 17.6263 11.8748C17.6263 13.1831 16.7596 14.2748 15.5763 14.6415V10.8331H2.41797L2.41797 15.6581C2.41797 17.5915 3.99297 19.1665 5.9263 19.1665H12.068C13.9013 19.1665 15.393 17.7498 15.543 15.9498C17.443 15.5665 18.8763 13.8831 18.8763 11.8748Z" fill="#12C4A0"/>
</svg>
