<svg width="60" height="60" viewBox="0 0 60 60" fill="none" xmlns="http://www.w3.org/2000/svg">
<path d="M30.5231 0.00501884C13.9586 -0.294993 0.304824 12.893 0.00501544 29.4562C-0.294794 46.0194 12.8843 59.695 29.4363 59.995C45.9882 60.295 59.6545 47.107 59.9543 30.5313C60.2541 13.9681 47.075 0.292531 30.5231 0.00501884ZM29.5362 54.3698C16.1073 54.1197 5.37659 42.9943 5.62644 29.5562C5.86378 16.1182 16.9817 5.38024 30.4107 5.61775C43.8521 5.86776 54.5703 16.9932 54.3329 30.4313C54.0956 43.8693 42.9652 54.6073 29.5362 54.3698Z" fill="#FF6803"/>
<path d="M30.3732 8.11785C18.3184 7.90534 8.33721 17.5432 8.12484 29.6062C8.05364 33.4014 8.96431 36.9903 10.6158 40.1354H17.4876V18.602C17.4876 17.2857 19.2752 16.867 19.8561 18.0483L29.9797 38.5629L40.1032 18.0495C40.6841 16.867 42.4717 17.2857 42.4717 18.602V40.1354H49.3224C50.8589 37.2128 51.7733 33.9127 51.8345 30.3938C52.0469 18.3308 42.428 8.34286 30.3732 8.11785Z" fill="#FF6803"/>
<path d="M39.9733 41.3855V23.9573L31.099 41.9392C30.6792 42.793 29.2789 42.793 28.8591 41.9392L19.986 23.9573V41.3855C19.986 42.0755 19.4276 42.6355 18.7368 42.6355H12.1773C16.0635 48.0995 22.382 51.7346 29.5862 51.8696C37.0777 52.0022 43.7634 48.327 47.8071 42.6355H41.2225C40.5317 42.6355 39.9733 42.0755 39.9733 41.3855Z" fill="#FF6803"/>
</svg>
