<svg width="60" height="60" viewBox="0 0 60 60" fill="none" xmlns="http://www.w3.org/2000/svg">
<path d="M30.5231 0.00501883C13.9586 -0.294993 0.304824 12.893 0.00501543 29.4562C-0.294793 46.0194 12.8843 59.6949 29.4362 59.9949C45.9882 60.2949 59.6545 47.1069 59.9543 30.5312C60.2541 13.9681 47.075 0.29253 30.5231 0.00501883ZM29.5362 54.3697C16.1072 54.1197 5.37659 42.9942 5.62643 29.5562C5.86378 16.1182 16.9817 5.38023 30.4106 5.61774C43.8521 5.86775 54.5702 16.9932 54.3329 30.4312C54.0955 43.8693 42.9651 54.6072 29.5362 54.3697Z" fill="#627EEA"/>
<path d="M30.3756 8.12284C18.3208 7.91034 8.3397 17.5482 8.12734 29.6112C7.90248 41.6617 17.5338 51.6496 29.5886 51.8746C41.6435 52.0871 51.6246 42.4492 51.837 30.3987C52.0493 18.3358 42.4305 8.34785 30.3756 8.12284ZM29.9821 14.3581L36.929 26.7598L30.5893 23.2297C30.2108 23.0197 29.7523 23.0197 29.3738 23.2297L23.0341 26.7598L29.9821 14.3581ZM29.9821 45.6381L23.0341 33.2364L29.3738 36.7665C29.5624 36.8715 29.7723 36.924 29.9809 36.924C30.1895 36.924 30.3994 36.8715 30.588 36.7665L36.9277 33.2364L29.9821 45.6381ZM29.9821 34.2426L22.357 29.9975L29.9821 25.7523L37.606 29.9975L29.9821 34.2426Z" fill="#627EEA"/>
</svg>
