<svg width="273" height="189" viewBox="0 0 273 189" fill="none" xmlns="http://www.w3.org/2000/svg">
<path fillRule="evenodd" clipRule="evenodd" d="M140 141.931C171.994 141.931 197.931 115.994 197.931 84C197.931 52.0056 171.994 26.069 140 26.069C108.006 26.069 82.069 52.0056 82.069 84C82.069 115.994 108.006 141.931 140 141.931ZM140 168C186.392 168 224 130.392 224 84C224 37.6081 186.392 0 140 0C93.6081 0 56 37.6081 56 84C56 130.392 93.6081 168 140 168Z" fill="#2B2B2B"/>
<path fillRule="evenodd" clipRule="evenodd" d="M140 47.5V11C147.706 11 155.352 12.2201 162.655 14.6044C164.437 15.1862 166.199 15.8372 167.936 16.5568C176.793 20.2254 184.84 25.6025 191.619 32.3812C198.397 39.1599 203.775 47.2073 207.443 56.0641C208.163 57.8012 208.814 59.5628 209.396 61.3448C211.78 68.6482 213 76.2937 213 83.9999L176.5 83.9999C176.5 79.2067 175.556 74.4604 173.722 70.032C171.887 65.6036 169.199 61.5799 165.809 58.1906C162.42 54.8012 158.396 52.1127 153.968 50.2784C149.54 48.4441 144.793 47.5 140 47.5Z" fill="#3C8AFF"/>
<path fillRule="evenodd" clipRule="evenodd" d="M169.529 105.454C169.534 105.448 169.538 105.442 169.542 105.436C174.065 99.2039 176.5 91.7007 176.5 84H213C213 91.6736 211.791 99.2492 209.459 106.461C209.438 106.526 209.417 106.591 209.396 106.655C207.045 113.857 203.573 120.693 199.066 126.898C199.063 126.902 199.061 126.905 199.058 126.908L169.529 105.454Z" fill="#ED3DD1"/>
<path fillRule="evenodd" clipRule="evenodd" d="M199.098 126.854C194.553 133.122 189.07 138.586 182.88 143.079C176.746 147.531 169.918 151.028 162.622 153.406C155.326 155.784 147.749 156.982 140.169 157C132.522 157.017 124.872 155.833 117.506 153.448L128.753 118.724C136.086 121.099 143.983 121.092 151.311 118.703C158.632 116.317 165.011 111.677 169.535 105.447C169.54 105.44 169.544 105.434 169.549 105.427L199.098 126.854Z" fill="#FFEE54"/>
<path fillRule="evenodd" clipRule="evenodd" d="M117.514 153.45C117.512 153.45 117.509 153.449 117.507 153.448C110.12 151.056 103.236 147.526 97.0706 143.043C87.8659 136.35 80.2652 127.533 74.9911 117.209C69.717 106.884 67.0282 95.5586 67.0002 84.1778C66.9815 76.5541 68.1566 68.9058 70.5484 61.5173L70.5495 61.5139L105.275 72.7569C105.274 72.7593 105.273 72.7617 105.272 72.7641C102.293 81.9718 103.093 91.9859 107.496 100.604C111.898 109.223 119.543 115.74 128.75 118.723C128.752 118.724 128.755 118.724 128.757 118.725L117.514 153.45Z" fill="#FF5166"/>
<path fillRule="evenodd" clipRule="evenodd" d="M70.5381 61.5498C70.5392 61.5465 70.5402 61.5433 70.5413 61.54C72.9223 54.1765 76.4429 47.2862 80.9351 41.1011C85.3894 34.9683 90.7989 29.5287 97 25.0086C103.201 20.4885 110.035 17.0033 117.237 14.6397C124.503 12.255 132.144 11.0121 139.886 11L139.943 47.4999C139.94 47.4999 139.937 47.4999 139.934 47.4999C132.229 47.5139 124.726 49.9657 118.5 54.5042C112.271 59.0446 107.64 65.4404 105.269 72.7748L70.5381 61.5498Z" fill="#2BC844"/>
<path d="M234.714 20.888H241.448V19.824H236.632C238.438 18.354 241.154 16.212 241.154 13.692C241.154 11.816 239.922 10.696 238.018 10.696C236.198 10.696 234.84 11.816 234.756 13.972H235.988C236.044 12.698 236.716 11.788 238.032 11.788C239.404 11.788 239.894 12.628 239.894 13.748C239.894 15.82 237.374 17.836 234.714 19.978V20.888ZM243.285 10.864V16.576H244.489C244.825 15.778 245.567 15.246 246.589 15.246C248.059 15.246 248.801 16.086 248.801 17.528C248.801 18.914 248.115 19.95 246.575 19.95C245.385 19.95 244.559 19.32 244.321 18.256H243.075C243.327 19.894 244.545 21.028 246.561 21.028C248.927 21.028 250.019 19.46 250.019 17.5C250.019 15.932 249.235 14.154 246.771 14.154C245.777 14.154 244.881 14.602 244.461 15.176V11.984H249.375V10.864H243.285ZM251.432 13.16C251.432 14.476 252.314 15.26 253.476 15.26C254.652 15.26 255.52 14.476 255.52 13.16C255.52 11.858 254.652 11.074 253.476 11.074C252.314 11.074 251.432 11.858 251.432 13.16ZM253.476 11.858C254.092 11.858 254.512 12.278 254.512 13.16C254.512 14.028 254.092 14.476 253.476 14.476C252.86 14.476 252.454 14.028 252.454 13.16C252.454 12.278 252.86 11.858 253.476 11.858ZM252.678 21H253.938L259.608 11.228H258.348L252.678 21ZM256.794 19.068C256.794 20.37 257.662 21.168 258.838 21.168C260 21.168 260.868 20.37 260.868 19.068C260.868 17.752 260 16.968 258.838 16.968C257.662 16.968 256.794 17.752 256.794 19.068ZM258.824 17.766C259.44 17.766 259.86 18.186 259.86 19.068C259.86 19.936 259.44 20.356 258.824 20.356C258.208 20.356 257.788 19.936 257.788 19.068C257.788 18.186 258.208 17.766 258.824 17.766Z" fill="#717579"/>
<path d="M250.876 122H252.164V111.878H249.532V113.04H250.876V122ZM254.352 116.834C254.352 119.774 255.08 122 257.88 122C260.666 122 261.394 119.774 261.394 116.834C261.394 113.936 260.666 111.724 257.88 111.724C255.08 111.724 254.352 113.936 254.352 116.834ZM260.134 116.834C260.134 119.018 259.868 120.838 257.88 120.838C255.878 120.838 255.612 119.018 255.612 116.834C255.612 114.734 255.878 112.886 257.88 112.886C259.868 112.886 260.134 114.734 260.134 116.834ZM262.863 114.16C262.863 115.476 263.745 116.26 264.907 116.26C266.083 116.26 266.951 115.476 266.951 114.16C266.951 112.858 266.083 112.074 264.907 112.074C263.745 112.074 262.863 112.858 262.863 114.16ZM264.907 112.858C265.523 112.858 265.943 113.278 265.943 114.16C265.943 115.028 265.523 115.476 264.907 115.476C264.291 115.476 263.885 115.028 263.885 114.16C263.885 113.278 264.291 112.858 264.907 112.858ZM264.109 122H265.369L271.039 112.228H269.779L264.109 122ZM268.225 120.068C268.225 121.37 269.093 122.168 270.269 122.168C271.431 122.168 272.299 121.37 272.299 120.068C272.299 118.752 271.431 117.968 270.269 117.968C269.093 117.968 268.225 118.752 268.225 120.068ZM270.255 118.766C270.871 118.766 271.291 119.186 271.291 120.068C271.291 120.936 270.871 121.356 270.255 121.356C269.639 121.356 269.219 120.936 269.219 120.068C269.219 119.186 269.639 118.766 270.255 118.766Z" fill="#717579"/>
<path d="M214.876 183H216.164V172.878H213.532V174.04H214.876V183ZM218.716 172.864V178.576H219.92C220.256 177.778 220.998 177.246 222.02 177.246C223.49 177.246 224.232 178.086 224.232 179.528C224.232 180.914 223.546 181.95 222.006 181.95C220.816 181.95 219.99 181.32 219.752 180.256H218.506C218.758 181.894 219.976 183.028 221.992 183.028C224.358 183.028 225.45 181.46 225.45 179.5C225.45 177.932 224.666 176.154 222.202 176.154C221.208 176.154 220.312 176.602 219.892 177.176V173.984H224.806V172.864H218.716ZM226.863 175.16C226.863 176.476 227.745 177.26 228.907 177.26C230.083 177.26 230.951 176.476 230.951 175.16C230.951 173.858 230.083 173.074 228.907 173.074C227.745 173.074 226.863 173.858 226.863 175.16ZM228.907 173.858C229.523 173.858 229.943 174.278 229.943 175.16C229.943 176.028 229.523 176.476 228.907 176.476C228.291 176.476 227.885 176.028 227.885 175.16C227.885 174.278 228.291 173.858 228.907 173.858ZM228.109 183H229.369L235.039 173.228H233.779L228.109 183ZM232.225 181.068C232.225 182.37 233.093 183.168 234.269 183.168C235.431 183.168 236.299 182.37 236.299 181.068C236.299 179.752 235.431 178.968 234.269 178.968C233.093 178.968 232.225 179.752 232.225 181.068ZM234.255 179.766C234.871 179.766 235.291 180.186 235.291 181.068C235.291 181.936 234.871 182.356 234.255 182.356C233.639 182.356 233.219 181.936 233.219 181.068C233.219 180.186 233.639 179.766 234.255 179.766Z" fill="#717579"/>
<path d="M10.84 149.426H12.086C12.212 148.446 12.926 147.774 14.116 147.774C15.334 147.774 15.978 148.446 15.978 149.412C15.978 150.588 15.068 151.106 13.374 151.12H13.038V152.184H13.36C15.18 152.184 16.174 152.73 16.174 154.158C16.174 155.194 15.53 155.992 14.172 155.992C12.828 155.992 12.044 155.166 11.918 154.088H10.686C10.84 156.048 12.268 157.07 14.186 157.07C16.3 157.07 17.392 155.838 17.392 154.27C17.392 152.814 16.594 151.946 15.418 151.666V151.596C16.482 151.358 17.21 150.448 17.21 149.286C17.21 147.83 16.132 146.682 14.158 146.682C12.282 146.682 10.966 147.69 10.84 149.426ZM19.1121 151.834C19.1121 154.774 19.8401 157 22.6401 157C25.4261 157 26.1541 154.774 26.1541 151.834C26.1541 148.936 25.4261 146.724 22.6401 146.724C19.8401 146.724 19.1121 148.936 19.1121 151.834ZM24.8941 151.834C24.8941 154.018 24.6281 155.838 22.6401 155.838C20.6381 155.838 20.3721 154.018 20.3721 151.834C20.3721 149.734 20.6381 147.886 22.6401 147.886C24.6281 147.886 24.8941 149.734 24.8941 151.834ZM27.6232 149.16C27.6232 150.476 28.5052 151.26 29.6672 151.26C30.8432 151.26 31.7112 150.476 31.7112 149.16C31.7112 147.858 30.8432 147.074 29.6672 147.074C28.5052 147.074 27.6232 147.858 27.6232 149.16ZM29.6672 147.858C30.2832 147.858 30.7032 148.278 30.7032 149.16C30.7032 150.028 30.2832 150.476 29.6672 150.476C29.0512 150.476 28.6452 150.028 28.6452 149.16C28.6452 148.278 29.0512 147.858 29.6672 147.858ZM28.8692 157H30.1292L35.7992 147.228H34.5392L28.8692 157ZM32.9852 155.068C32.9852 156.37 33.8532 157.168 35.0292 157.168C36.1912 157.168 37.0592 156.37 37.0592 155.068C37.0592 153.752 36.1912 152.968 35.0292 152.968C33.8532 152.968 32.9852 153.752 32.9852 155.068ZM35.0152 153.766C35.6312 153.766 36.0512 154.186 36.0512 155.068C36.0512 155.936 35.6312 156.356 35.0152 156.356C34.3992 156.356 33.9792 155.936 33.9792 155.068C33.9792 154.186 34.3992 153.766 35.0152 153.766Z" fill="#717579"/>
<path d="M0.714 26.888H7.448V25.824H2.632C4.438 24.354 7.154 22.212 7.154 19.692C7.154 17.816 5.922 16.696 4.018 16.696C2.198 16.696 0.84 17.816 0.756 19.972H1.988C2.044 18.698 2.716 17.788 4.032 17.788C5.404 17.788 5.894 18.628 5.894 19.748C5.894 21.82 3.374 23.836 0.714 25.978V26.888ZM9.28473 16.864V22.576H10.4887C10.8247 21.778 11.5667 21.246 12.5887 21.246C14.0587 21.246 14.8007 22.086 14.8007 23.528C14.8007 24.914 14.1147 25.95 12.5747 25.95C11.3847 25.95 10.5587 25.32 10.3207 24.256H9.07473C9.32673 25.894 10.5447 27.028 12.5607 27.028C14.9267 27.028 16.0187 25.46 16.0187 23.5C16.0187 21.932 15.2347 20.154 12.7707 20.154C11.7767 20.154 10.8807 20.602 10.4607 21.176V17.984H15.3747V16.864H9.28473ZM17.4318 19.16C17.4318 20.476 18.3138 21.26 19.4758 21.26C20.6518 21.26 21.5198 20.476 21.5198 19.16C21.5198 17.858 20.6518 17.074 19.4758 17.074C18.3138 17.074 17.4318 17.858 17.4318 19.16ZM19.4758 17.858C20.0918 17.858 20.5118 18.278 20.5118 19.16C20.5118 20.028 20.0918 20.476 19.4758 20.476C18.8598 20.476 18.4538 20.028 18.4538 19.16C18.4538 18.278 18.8598 17.858 19.4758 17.858ZM18.6778 27H19.9378L25.6078 17.228H24.3478L18.6778 27ZM22.7938 25.068C22.7938 26.37 23.6618 27.168 24.8378 27.168C25.9998 27.168 26.8678 26.37 26.8678 25.068C26.8678 23.752 25.9998 22.968 24.8378 22.968C23.6618 22.968 22.7938 23.752 22.7938 25.068ZM24.8238 23.766C25.4398 23.766 25.8598 24.186 25.8598 25.068C25.8598 25.936 25.4398 26.356 24.8238 26.356C24.2078 26.356 23.7878 25.936 23.7878 25.068C23.7878 24.186 24.2078 23.766 24.8238 23.766Z" fill="#717579"/>
<path d="M45 28.5H59.5L88 51.5M225 17.5H211.5L187 41M239.5 118.5H224.5L201 104M201 178H189.5L164 143M50.5 151.5H61.5L89 124.5" stroke="white"/>
</svg>
