<svg width="343" height="174" viewBox="0 0 343 174" fill="none" xmlns="http://www.w3.org/2000/svg">
<line opacity="0.8" x1="1" y1="173.792" x2="343" y2="173.792" stroke="#383838" strokeWidth="0.416319"/>
<path opacity="0.8" d="M6.95361 0.276367L6.95362 174" stroke="#383838" strokeWidth="0.832639" strokeDasharray="1.67 1.67"/>
<line opacity="0.8" x1="120.69" y1="0.276367" x2="120.69" y2="174" stroke="#383838" strokeWidth="0.832639" strokeDasharray="1.67 1.67"/>
<line opacity="0.8" x1="65.3553" y1="0.276367" x2="65.3553" y2="174" stroke="#383838" strokeWidth="0.832639" strokeDasharray="1.67 1.67"/>
<line opacity="0.8" x1="177.459" y1="0.276367" x2="177.459" y2="174" stroke="#383838" strokeWidth="0.832639" strokeDasharray="1.67 1.67"/>
<line opacity="0.8" x1="229.36" y1="0.276367" x2="229.36" y2="174" stroke="#383838" strokeWidth="0.832639" strokeDasharray="1.67 1.67"/>
<line opacity="0.8" x1="282.259" y1="0.276367" x2="282.259" y2="174" stroke="#383838" strokeWidth="0.832639" strokeDasharray="1.67 1.67"/>
<line opacity="0.8" x1="336.594" y1="0.276367" x2="336.594" y2="174" stroke="#383838" strokeWidth="0.832639" strokeDasharray="1.67 1.67"/>
<rect x="0.62793" y="89.9714" width="12.7276" height="84.0288" rx="2.49792" fill="#12C4A0"/>
<rect x="59.1748" y="63.4963" width="12.7276" height="110.504" rx="2.49792" fill="#12C4A0"/>
<rect x="113.903" y="47.3813" width="12.7276" height="126.619" rx="2.49792" fill="#12C4A0"/>
<rect x="171.177" y="14" width="12.7276" height="160" rx="2.49792" fill="#12C4A0"/>
<rect x="223.36" y="14" width="12.7276" height="160" rx="2.49792" fill="#12C4A0"/>
<rect x="275.543" y="40.4746" width="12.7276" height="133.525" rx="2.49792" fill="#12C4A0"/>
<rect x="330.272" y="85.3672" width="12.7276" height="88.6331" rx="2.49792" fill="#12C4A0"/>
<rect x="0.62793" y="144.667" width="12.7276" height="29.3322" rx="2.49792" fill="#FFCD1E"/>
<rect x="59.1748" y="135.405" width="12.7276" height="38.595" rx="2.49792" fill="#FFCD1E"/>
<rect x="113.903" y="130.001" width="12.7276" height="43.9983" rx="2.49792" fill="#FFCD1E"/>
<rect x="171.177" y="108.388" width="12.7276" height="65.6115" rx="2.49792" fill="#FFCD1E"/>
<rect x="223.36" y="118.423" width="12.7276" height="55.5768" rx="2.49792" fill="#FFCD1E"/>
<rect x="275.543" y="127.686" width="12.7276" height="46.314" rx="2.49792" fill="#FFCD1E"/>
<rect x="330.272" y="143.124" width="12.7276" height="30.876" rx="2.49792" fill="#FFCD1E"/>
</svg>
