<svg width="393" height="383" viewBox="0 0 393 383" fill="none" xmlns="http://www.w3.org/2000/svg">
<ellipse cx="193" cy="205" rx="184" ry="178" fill="#5E5E5E" fill-opacity="0.55"/>
<ellipse cx="195" cy="207.5" rx="122" ry="118.5" fill="black"/>
<path d="M20.5 142.5L34.9999 113.5L51.4999 89.5L71.5 70.5L83.5 61.5L94.9999 54.0001L126 39L159.5 30L180.5 26.5L203.5 28L195 89.5L182 89.5001L161.5 92.5L133 105.5L113 119L98.5 135.5L86 154L76.5 176.5L20.5 142.5Z" fill="#1565FF"/>
<path d="M328.159 82.3619L349.512 105.796L365.271 129.133L374.796 153.687L378.234 167.531L380.461 180.383L381.513 213.095L375.809 245.779L370.201 265.475L358.998 285.073L304.254 254.873L309.781 243.482L315.651 224.409L315.434 194.627L311.127 172.108L301.635 153.298L289.395 135.501L272.084 118.853L328.159 82.3619Z" fill="#757575"/>
<path d="M146.428 190.23C145.999 190.23 145.477 190.192 144.864 190.115C144.251 190.054 143.645 189.962 143.047 189.839C142.464 189.716 141.974 189.578 141.575 189.425V185.975C142.234 186.266 142.94 186.481 143.691 186.619C144.442 186.742 145.125 186.803 145.738 186.803C146.597 186.803 147.233 186.696 147.647 186.481C148.076 186.266 148.291 185.868 148.291 185.285C148.291 184.426 147.616 183.997 146.267 183.997H143.76L144.036 181.099H146.129C146.804 181.099 147.287 180.992 147.578 180.777C147.869 180.562 148.015 180.217 148.015 179.742C148.015 179.297 147.823 178.96 147.44 178.73C147.072 178.5 146.466 178.385 145.623 178.385C144.948 178.385 144.266 178.462 143.576 178.615C142.886 178.768 142.296 178.968 141.805 179.213V175.786C142.372 175.556 143.078 175.364 143.921 175.211C144.764 175.042 145.608 174.958 146.451 174.958C147.739 174.958 148.828 175.142 149.717 175.51C150.606 175.878 151.281 176.384 151.741 177.028C152.201 177.672 152.431 178.408 152.431 179.236C152.431 179.941 152.293 180.585 152.017 181.168C151.756 181.751 151.365 182.211 150.844 182.548C152.086 183.069 152.707 184.104 152.707 185.653C152.707 186.711 152.431 187.577 151.879 188.252C151.342 188.927 150.599 189.425 149.648 189.747C148.713 190.069 147.639 190.23 146.428 190.23ZM160.945 190.23C159.243 190.23 157.871 189.939 156.828 189.356C155.801 188.758 155.049 187.892 154.574 186.757C154.099 185.622 153.861 184.235 153.861 182.594C153.861 180.953 154.099 179.566 154.574 178.431C155.049 177.296 155.801 176.438 156.828 175.855C157.871 175.257 159.243 174.958 160.945 174.958C163.49 174.958 165.307 175.617 166.396 176.936C167.485 178.239 168.029 180.125 168.029 182.594C168.029 185.047 167.485 186.933 166.396 188.252C165.307 189.571 163.49 190.23 160.945 190.23ZM160.945 186.55C161.942 186.55 162.632 186.22 163.015 185.561C163.414 184.886 163.613 183.897 163.613 182.594C163.613 181.275 163.414 180.286 163.015 179.627C162.632 178.968 161.942 178.638 160.945 178.638C159.948 178.638 159.251 178.968 158.852 179.627C158.469 180.286 158.277 181.275 158.277 182.594C158.277 183.897 158.469 184.886 158.852 185.561C159.251 186.22 159.948 186.55 160.945 186.55ZM172.675 182.088C171.541 182.088 170.674 181.774 170.076 181.145C169.478 180.501 169.179 179.681 169.179 178.684C169.179 177.534 169.478 176.629 170.076 175.97C170.674 175.295 171.541 174.958 172.675 174.958C173.825 174.958 174.699 175.295 175.297 175.97C175.895 176.629 176.194 177.534 176.194 178.684C176.194 179.681 175.895 180.501 175.297 181.145C174.699 181.774 173.825 182.088 172.675 182.088ZM171.571 190L179.299 175.188H183.393L175.642 190H171.571ZM172.675 179.834C173.105 179.834 173.411 179.727 173.595 179.512C173.779 179.282 173.871 178.975 173.871 178.592C173.871 177.672 173.473 177.212 172.675 177.212C172.261 177.212 171.962 177.319 171.778 177.534C171.594 177.749 171.502 178.101 171.502 178.592C171.502 178.975 171.594 179.282 171.778 179.512C171.962 179.727 172.261 179.834 172.675 179.834ZM182.289 190.23C181.155 190.23 180.288 189.916 179.69 189.287C179.092 188.643 178.793 187.823 178.793 186.826C178.793 185.691 179.092 184.794 179.69 184.135C180.288 183.46 181.155 183.123 182.289 183.123C183.439 183.123 184.313 183.46 184.911 184.135C185.509 184.794 185.808 185.691 185.808 186.826C185.808 187.823 185.509 188.643 184.911 189.287C184.313 189.916 183.439 190.23 182.289 190.23ZM182.289 187.999C182.719 187.999 183.025 187.892 183.209 187.677C183.393 187.447 183.485 187.14 183.485 186.757C183.485 185.837 183.087 185.377 182.289 185.377C181.875 185.377 181.576 185.484 181.392 185.699C181.208 185.914 181.116 186.266 181.116 186.757C181.116 187.14 181.208 187.447 181.392 187.677C181.576 187.892 181.875 187.999 182.289 187.999ZM203.762 190.23C202.382 190.23 201.163 190.008 200.105 189.563C199.062 189.103 198.242 188.436 197.644 187.562C197.046 186.673 196.747 185.584 196.747 184.296V175.188H201.071V183.836C201.071 185.645 201.968 186.55 203.762 186.55C204.621 186.55 205.28 186.328 205.74 185.883C206.2 185.438 206.43 184.756 206.43 183.836V175.188H210.754V184.296C210.754 185.584 210.455 186.673 209.857 187.562C209.274 188.436 208.454 189.103 207.396 189.563C206.353 190.008 205.142 190.23 203.762 190.23ZM217.573 190.23C216.576 190.23 215.633 190.153 214.744 190C213.854 189.831 213.095 189.601 212.467 189.31V185.745C213.157 186.067 213.923 186.328 214.767 186.527C215.61 186.726 216.4 186.826 217.136 186.826C217.902 186.826 218.477 186.765 218.861 186.642C219.259 186.504 219.459 186.205 219.459 185.745C219.459 185.423 219.344 185.17 219.114 184.986C218.899 184.802 218.554 184.633 218.079 184.48C217.619 184.327 217.013 184.135 216.262 183.905C215.265 183.583 214.475 183.23 213.893 182.847C213.31 182.464 212.888 181.996 212.628 181.444C212.382 180.892 212.26 180.217 212.26 179.42C212.26 177.963 212.773 176.859 213.801 176.108C214.843 175.341 216.384 174.958 218.424 174.958C219.236 174.958 220.072 175.027 220.931 175.165C221.805 175.303 222.51 175.456 223.047 175.625V179.213C222.326 178.922 221.636 178.715 220.977 178.592C220.317 178.469 219.696 178.408 219.114 178.408C218.439 178.408 217.864 178.462 217.389 178.569C216.913 178.676 216.676 178.952 216.676 179.397C216.676 179.78 216.875 180.064 217.274 180.248C217.688 180.417 218.416 180.639 219.459 180.915C220.67 181.237 221.59 181.628 222.219 182.088C222.863 182.548 223.3 183.085 223.53 183.698C223.76 184.296 223.875 184.978 223.875 185.745C223.875 187.094 223.353 188.183 222.311 189.011C221.268 189.824 219.689 190.23 217.573 190.23ZM225.477 190V175.188H232.101C233.619 175.188 234.915 175.441 235.988 175.947C237.062 176.438 237.882 177.235 238.449 178.339C239.017 179.428 239.3 180.877 239.3 182.686C239.3 185.231 238.679 187.087 237.437 188.252C236.195 189.417 234.417 190 232.101 190H225.477ZM229.801 186.688H231.549C232.27 186.688 232.876 186.588 233.366 186.389C233.857 186.174 234.233 185.783 234.493 185.216C234.754 184.633 234.884 183.79 234.884 182.686C234.884 181.582 234.762 180.731 234.516 180.133C234.286 179.52 233.926 179.098 233.435 178.868C232.945 178.623 232.316 178.5 231.549 178.5H229.801V186.688ZM243.926 190V178.408H239.763V175.188H252.413V178.408H248.25V190H243.926Z" fill="white"/>
<path d="M156.086 212V201.696H163.27V203.056H157.83V206.176H162.678V207.52H157.83V210.656H163.27V212H156.086ZM167.555 212V203.056H164.259V201.696H172.579V203.056H169.299V212H167.555ZM173.977 212V201.696H175.769L179.033 208.368L182.281 201.696H184.073V212H182.345V204.528L179.561 210.224H178.505L175.705 204.528V212H173.977ZM186.086 212V201.696H187.83V212H186.086ZM189.852 212V201.696H191.596V210.656H196.876V212H189.852ZM202.658 212.16C201.239 212.16 200.135 211.819 199.346 211.136C198.567 210.453 198.178 209.467 198.178 208.176V201.696H199.922V208.112C199.922 208.976 200.157 209.621 200.626 210.048C201.106 210.475 201.783 210.688 202.658 210.688C203.522 210.688 204.189 210.475 204.658 210.048C205.138 209.621 205.378 208.976 205.378 208.112V201.696H207.106V208.176C207.106 209.467 206.717 210.453 205.938 211.136C205.159 211.819 204.066 212.16 202.658 212.16ZM212.159 212.16C210.826 212.16 209.754 211.989 208.943 211.648V210.112C209.402 210.283 209.893 210.421 210.415 210.528C210.949 210.635 211.477 210.688 211.999 210.688C212.821 210.688 213.434 210.592 213.839 210.4C214.255 210.208 214.463 209.824 214.463 209.248C214.463 208.896 214.378 208.613 214.207 208.4C214.037 208.187 213.754 208.005 213.359 207.856C212.965 207.696 212.421 207.531 211.727 207.36C210.618 207.072 209.839 206.709 209.391 206.272C208.943 205.824 208.719 205.211 208.719 204.432C208.719 203.525 209.05 202.816 209.711 202.304C210.373 201.792 211.359 201.536 212.671 201.536C213.269 201.536 213.829 201.579 214.351 201.664C214.885 201.749 215.301 201.845 215.599 201.952V203.488C214.789 203.179 213.893 203.024 212.911 203.024C212.143 203.024 211.546 203.125 211.119 203.328C210.693 203.531 210.479 203.899 210.479 204.432C210.479 204.741 210.554 204.992 210.703 205.184C210.853 205.376 211.109 205.541 211.471 205.68C211.845 205.819 212.357 205.973 213.007 206.144C213.85 206.357 214.501 206.613 214.959 206.912C215.429 207.2 215.754 207.541 215.935 207.936C216.127 208.32 216.223 208.757 216.223 209.248C216.223 210.155 215.887 210.869 215.215 211.392C214.543 211.904 213.525 212.16 212.159 212.16ZM217.914 212V201.696H222.09C223.616 201.696 224.746 202.101 225.482 202.912C226.218 203.712 226.586 205.045 226.586 206.912C226.586 208.672 226.224 209.963 225.498 210.784C224.773 211.595 223.637 212 222.09 212H217.914ZM219.658 210.656H221.818C222.49 210.656 223.05 210.56 223.498 210.368C223.946 210.165 224.282 209.792 224.506 209.248C224.73 208.704 224.842 207.925 224.842 206.912C224.842 205.899 224.741 205.115 224.538 204.56C224.336 204.005 224.01 203.616 223.562 203.392C223.125 203.168 222.544 203.056 221.818 203.056H219.658V210.656ZM230.821 212V203.056H227.525V201.696H235.845V203.056H232.565V212H230.821ZM166.946 227V216.696H171.538C172.327 216.696 172.978 216.845 173.49 217.144C174.002 217.443 174.38 217.853 174.626 218.376C174.871 218.888 174.994 219.475 174.994 220.136C174.994 221.16 174.674 221.981 174.034 222.6C173.404 223.219 172.551 223.528 171.474 223.528H168.69V227H166.946ZM168.69 222.152H171.154C171.847 222.152 172.37 221.971 172.722 221.608C173.074 221.245 173.25 220.755 173.25 220.136C173.25 219.475 173.079 218.963 172.738 218.6C172.407 218.237 171.906 218.056 171.234 218.056H168.69V222.152ZM176.383 227V219.416H177.983L178.079 220.296C178.442 220.061 178.874 219.848 179.375 219.656C179.876 219.464 180.372 219.331 180.863 219.256V220.584C180.564 220.637 180.239 220.717 179.887 220.824C179.546 220.92 179.22 221.032 178.911 221.16C178.602 221.277 178.34 221.4 178.127 221.528V227H176.383ZM185.453 227.16C184.087 227.16 183.085 226.819 182.445 226.136C181.815 225.453 181.501 224.477 181.501 223.208C181.501 221.939 181.821 220.963 182.461 220.28C183.101 219.597 184.098 219.256 185.453 219.256C186.818 219.256 187.821 219.597 188.461 220.28C189.101 220.963 189.421 221.939 189.421 223.208C189.421 224.477 189.101 225.453 188.461 226.136C187.831 226.819 186.829 227.16 185.453 227.16ZM185.453 225.688C186.253 225.688 186.818 225.496 187.149 225.112C187.49 224.717 187.661 224.083 187.661 223.208C187.661 222.333 187.49 221.704 187.149 221.32C186.818 220.936 186.253 220.744 185.453 220.744C184.663 220.744 184.098 220.936 183.757 221.32C183.426 221.704 183.261 222.333 183.261 223.208C183.261 224.083 183.426 224.717 183.757 225.112C184.098 225.496 184.663 225.688 185.453 225.688ZM191.117 230.456V219.416H192.621L192.717 220.168C193.059 219.859 193.432 219.629 193.837 219.48C194.243 219.331 194.723 219.256 195.277 219.256C196.365 219.256 197.213 219.555 197.821 220.152C198.429 220.739 198.733 221.715 198.733 223.08C198.733 224.445 198.419 225.469 197.789 226.152C197.16 226.824 196.301 227.16 195.213 227.16C194.296 227.16 193.512 226.947 192.861 226.52V230.456H191.117ZM194.765 225.848C196.237 225.848 196.973 224.92 196.973 223.064C196.973 222.168 196.808 221.533 196.477 221.16C196.147 220.776 195.592 220.584 194.813 220.584C194.035 220.584 193.384 220.851 192.861 221.384V225.176C193.107 225.379 193.379 225.544 193.677 225.672C193.987 225.789 194.349 225.848 194.765 225.848ZM204.062 227.16C202.697 227.16 201.694 226.819 201.054 226.136C200.425 225.453 200.11 224.477 200.11 223.208C200.11 221.939 200.43 220.963 201.07 220.28C201.71 219.597 202.707 219.256 204.062 219.256C205.427 219.256 206.43 219.597 207.07 220.28C207.71 220.963 208.03 221.939 208.03 223.208C208.03 224.477 207.71 225.453 207.07 226.136C206.441 226.819 205.438 227.16 204.062 227.16ZM204.062 225.688C204.862 225.688 205.427 225.496 205.758 225.112C206.099 224.717 206.27 224.083 206.27 223.208C206.27 222.333 206.099 221.704 205.758 221.32C205.427 220.936 204.862 220.744 204.062 220.744C203.273 220.744 202.707 220.936 202.366 221.32C202.035 221.704 201.87 222.333 201.87 223.208C201.87 224.083 202.035 224.717 202.366 225.112C202.707 225.496 203.273 225.688 204.062 225.688ZM212.177 227.16C211.654 227.16 211.153 227.123 210.673 227.048C210.203 226.973 209.814 226.883 209.505 226.776V225.304C209.867 225.443 210.267 225.549 210.705 225.624C211.142 225.699 211.558 225.736 211.953 225.736C212.55 225.736 212.977 225.683 213.233 225.576C213.489 225.469 213.617 225.261 213.617 224.952C213.617 224.728 213.537 224.552 213.377 224.424C213.227 224.296 212.998 224.179 212.689 224.072C212.39 223.965 212.006 223.837 211.537 223.688C211.089 223.539 210.699 223.379 210.369 223.208C210.038 223.027 209.782 222.797 209.601 222.52C209.419 222.243 209.329 221.88 209.329 221.432C209.329 220.739 209.579 220.205 210.081 219.832C210.582 219.448 211.387 219.256 212.497 219.256C212.934 219.256 213.35 219.288 213.745 219.352C214.139 219.416 214.475 219.496 214.753 219.592V221.048C214.454 220.931 214.123 220.84 213.761 220.776C213.409 220.712 213.078 220.68 212.769 220.68C212.214 220.68 211.793 220.728 211.505 220.824C211.227 220.92 211.089 221.112 211.089 221.4C211.089 221.699 211.233 221.912 211.521 222.04C211.819 222.157 212.294 222.323 212.945 222.536C213.542 222.717 214.017 222.909 214.369 223.112C214.721 223.315 214.971 223.56 215.121 223.848C215.281 224.125 215.361 224.488 215.361 224.936C215.361 225.683 215.089 226.243 214.545 226.616C214.001 226.979 213.211 227.16 212.177 227.16ZM219.204 227.16C218.724 227.16 218.276 227.075 217.86 226.904C217.455 226.733 217.129 226.477 216.884 226.136C216.639 225.784 216.516 225.352 216.516 224.84C216.516 224.115 216.761 223.533 217.252 223.096C217.753 222.648 218.521 222.424 219.556 222.424H221.988V222.088C221.988 221.725 221.929 221.437 221.812 221.224C221.705 221.011 221.503 220.856 221.204 220.76C220.916 220.664 220.489 220.616 219.924 220.616C219.028 220.616 218.191 220.749 217.412 221.016V219.72C217.753 219.581 218.169 219.469 218.66 219.384C219.151 219.299 219.679 219.256 220.244 219.256C221.353 219.256 222.196 219.48 222.772 219.928C223.359 220.376 223.652 221.107 223.652 222.12V227H222.164L222.052 226.232C221.743 226.531 221.359 226.76 220.9 226.92C220.452 227.08 219.887 227.16 219.204 227.16ZM219.668 225.912C220.191 225.912 220.644 225.827 221.028 225.656C221.423 225.475 221.743 225.235 221.988 224.936V223.608H219.588C219.076 223.608 218.703 223.709 218.468 223.912C218.244 224.104 218.132 224.403 218.132 224.808C218.132 225.203 218.265 225.485 218.532 225.656C218.799 225.827 219.177 225.912 219.668 225.912ZM227.474 227.16C226.855 227.16 226.386 227.011 226.066 226.712C225.746 226.403 225.586 225.896 225.586 225.192V216.216H227.33V225.032C227.33 225.331 227.383 225.533 227.49 225.64C227.597 225.747 227.757 225.8 227.97 225.8C228.226 225.8 228.471 225.768 228.706 225.704V226.968C228.503 227.043 228.306 227.091 228.114 227.112C227.933 227.144 227.719 227.16 227.474 227.16Z" fill="white"/>
</svg>
