<svg width="282" height="59" viewBox="0 0 282 59" fill="none" xmlns="http://www.w3.org/2000/svg">
<path d="M268.748 11.883L272.071 13.7727C273.814 14.7642 277.632 14.6196 278.867 13.5153C279.305 13.1235 280 13.4344 280 14.0222V59H2V32.7348L27.0655 31.2411C28.0485 31.1825 28.9829 30.7934 29.7169 30.1369C30.9514 29.0326 34.7697 28.888 36.5129 29.8795L39.8352 31.7691C40.4459 32.1165 41.8072 32.0197 42.0731 31.6101C42.3321 31.2111 43.6408 31.1053 44.2758 31.432L46.8083 32.7348C48.4617 33.5855 51.8667 33.3173 52.5679 32.2812L57.6924 24.7094C57.8508 24.4753 58.7156 24.5067 58.7633 24.7483C58.8105 24.9869 59.6596 25.0219 59.8306 24.7924L68.3463 13.3629C69.246 12.1553 73.5008 12.0769 74.6811 13.2463L77.5584 16.0969C77.9173 16.4525 79.2249 16.4095 79.4303 16.0354C79.6416 15.6503 81.0033 15.6205 81.3209 15.9941L83.9718 19.1126C84.7551 20.0341 87.7346 20.2981 89.4391 19.597L94.5062 17.5128C95.8138 16.975 98.1159 17.2809 98.3349 18.0216C98.621 18.9892 102.082 19.0866 102.712 18.1448L110.897 5.91651C111.185 5.48542 112.769 5.52978 112.901 5.97265C113.04 6.44324 114.763 6.45061 114.929 5.98133L116.082 2.71342C116.408 1.79095 119.745 1.751 120.212 2.66399L127.733 17.3853C127.976 17.8603 129.704 17.8493 129.908 17.3715C130.096 16.9313 131.637 16.8727 132.034 17.2907L136.279 21.7604C137.844 23.408 143.918 23.1773 144.659 21.4422L144.938 20.7901C145.271 20.0107 146.537 19.5185 148.051 19.3138C152.495 18.7131 153.374 25.8221 157.812 25.1803C159.087 24.9958 160.785 24.3972 163.017 23.2052C163.423 22.9887 163.743 22.6328 163.924 22.21C164.666 20.4749 170.74 20.2442 172.305 21.8917L176.55 26.3615C176.947 26.7795 178.488 26.7209 178.676 26.2807C178.88 25.8028 180.608 25.7919 180.85 26.2669L188.372 40.9882C188.838 41.9012 192.175 41.8612 192.501 40.9388L193.655 37.6708C193.82 37.2016 195.543 37.2089 195.683 37.6795C195.815 38.1224 197.398 38.1668 197.687 37.7357L205.871 25.5074C206.502 24.5656 209.962 24.6629 210.249 25.6306C210.468 26.3713 212.77 26.6772 214.077 26.1393L219.144 24.0552C220.849 23.3541 223.828 23.6181 224.612 24.5396L227.263 27.6581C227.58 28.0316 228.942 28.0019 229.153 27.6168C229.359 27.2426 230.666 27.1997 231.025 27.5553L233.902 30.4059C235.083 31.5752 239.337 31.4969 240.237 30.2892L248.753 18.8598C248.924 18.6302 249.773 18.6653 249.82 18.9038C249.868 19.1454 250.733 19.1768 250.891 18.9427L256.016 11.371C256.717 10.3349 260.122 10.0667 261.775 10.9173L264.308 12.2202C264.943 12.5469 266.251 12.4411 266.51 12.0421C266.776 11.6325 268.138 11.5357 268.748 11.883Z" fill="#09BD3C" fill-opacity="0.15"/>
<path d="M280 12.5937L278.866 13.6163C277.631 14.7303 273.812 14.8762 272.068 13.876L268.744 11.9697C268.133 11.6193 266.772 11.7169 266.506 12.1302C266.246 12.5327 264.937 12.6394 264.302 12.3099L261.769 10.9956C260.115 10.1375 256.709 10.408 256.007 11.4532L250.881 19.0914C250.722 19.3275 249.857 19.2958 249.809 19.0521C249.762 18.8115 248.913 18.7761 248.742 19.0077L240.223 30.5374C239.323 31.7556 235.067 31.8347 233.886 30.6551L231.008 27.7795C230.649 27.4207 229.341 27.4641 229.135 27.8415C228.924 28.23 227.562 28.26 227.244 27.8832L224.592 24.7373C223.808 23.8077 220.828 23.5414 219.123 24.2486L214.054 26.3511C212.746 26.8936 210.443 26.585 210.224 25.8379C209.938 24.8617 206.476 24.7635 205.845 25.7136L197.658 38.0491C197.369 38.484 195.785 38.4393 195.653 37.9925C195.513 37.5178 193.79 37.5103 193.624 37.9837L192.47 41.2803C192.144 42.2109 188.806 42.2512 188.339 41.3302L180.815 26.4797C180.572 26.0006 178.844 26.0116 178.64 26.4937C178.452 26.9377 176.91 26.9968 176.513 26.5752L172.266 22.0662C170.701 20.4042 164.625 20.637 163.883 22.3873C163.702 22.8138 163.381 23.1735 162.973 23.393C160.72 24.6051 159.013 25.2085 157.734 25.3886C153.292 26.0138 152.459 18.8624 148.014 19.4644C146.495 19.67 145.224 20.167 144.89 20.9549L144.611 21.6127C143.87 23.363 137.793 23.5958 136.228 21.9338L131.981 17.4248C131.584 17.0031 130.043 17.0623 129.855 17.5063C129.651 17.9884 127.922 17.9994 127.679 17.5203L120.155 2.66982C119.688 1.74882 116.35 1.78911 116.024 2.71968L114.87 6.01626C114.704 6.48966 112.981 6.48221 112.841 6.0075C112.71 5.56075 111.125 5.51599 110.837 5.95086L102.649 18.2864C102.019 19.2365 98.5567 19.1383 98.2705 18.1621C98.0514 17.415 95.7485 17.1064 94.4405 17.6489L89.3716 19.7514C87.6665 20.4586 84.6859 20.1923 83.9023 19.2627L81.2505 16.1168C80.9328 15.74 79.5706 15.77 79.3592 16.1585C79.1537 16.5359 77.8457 16.5793 77.4866 16.2205L74.6083 13.3449C73.4276 12.1653 69.1713 12.2444 68.2712 13.4626L59.7526 24.9923C59.5815 25.2239 58.7321 25.1885 58.6849 24.9479C58.6371 24.7042 57.7721 24.6725 57.6136 24.9086L52.4873 32.5468C51.7858 33.592 48.3797 33.8625 46.7256 33.0044L44.1922 31.6901C43.557 31.3606 42.2479 31.4673 41.9888 31.8698C41.7227 32.2831 40.361 32.3807 39.7501 32.0303L36.4266 30.124C32.4477 27.8419 27.1322 30.5272 22.5529 30.7906L1 32.0303" stroke="#34C759" strokeWidth="4"/>
</svg>
