<svg width="63" height="63" viewBox="0 0 63 63" fill="none" xmlns="http://www.w3.org/2000/svg">
<rect width="63" height="63" rx="31.5" fill="#FD5353" fill-opacity="0.1"/>
<path d="M22.1318 30.9045L22.1318 30.9044L22.1151 23.9962C22.1151 23.9924 22.1151 23.9888 22.1152 23.9855M22.1318 30.9045L22.6152 23.991L22.1152 23.9902C22.1152 23.977 22.1157 23.9668 22.116 23.9625L22.1161 23.9609C22.1159 23.9642 22.1154 23.9731 22.1152 23.9844C22.1152 23.9848 22.1152 23.9852 22.1152 23.9855M22.1318 30.9045C22.1338 31.6983 22.7788 32.3404 23.5728 32.3385C24.3667 32.3366 25.0088 31.6915 25.0069 30.8976L25.0069 30.8976L24.9986 27.4689M22.1318 30.9045L24.9986 27.4689M22.1152 23.9855C22.1176 23.197 22.7574 22.5546 23.5488 22.5525C23.5504 22.5525 23.5522 22.5525 23.554 22.5525L23.5561 22.5525L23.5732 22.5525L30.4671 22.5692L30.4658 23.0692L30.4671 22.5692C31.2608 22.5711 31.903 23.216 31.9011 24.0102C31.8992 24.8041 31.2541 25.4461 30.4602 25.4442L30.4602 25.4442L27.0315 25.4359L40.2141 38.6185C40.7755 39.1799 40.7755 40.0901 40.2141 40.6515C39.6527 41.2128 38.7426 41.2128 38.1812 40.6515L24.9986 27.4689M22.1152 23.9855C22.1152 23.9875 22.1152 23.9896 22.1152 23.9916L24.9986 27.4689M23.5541 22.5525C23.5547 22.5525 23.5554 22.5525 23.5561 22.5525L23.5541 22.5525Z" fill="#FF2E2E" stroke="#FF2E2E"/>
</svg>
