<svg width="126" height="126" viewBox="0 0 126 126" fill="none" xmlns="http://www.w3.org/2000/svg">
<path d="M63 0C28.2061 0 0 28.2061 0 63C0 97.7938 28.2061 126 63 126C97.7938 126 126 97.7938 126 63C125.962 28.2226 97.7774 0.0384523 63 0ZM36.9843 58.4997H54.9841C57.4697 58.4997 59.4844 60.5143 59.4844 63C59.4844 65.4857 57.4697 67.5003 54.9841 67.5003H36.9843C34.4986 67.5003 32.484 65.4857 32.484 63C32.484 60.5143 34.5 58.4997 36.9843 58.4997ZM93.2524 52.0974L87.8402 79.1761C86.5658 85.4616 81.0465 89.9853 74.6332 90.0004H36.9843C34.4986 90.0004 32.484 87.9858 32.484 85.5001C32.484 83.0144 34.5 80.9998 36.9843 80.9998H74.6332C76.7604 80.9943 78.591 79.4947 79.014 77.41L84.4276 50.3313C84.9082 47.9143 83.3399 45.566 80.9243 45.0853C80.6373 45.029 80.3461 45.0002 80.055 45.0002H45.9848C43.4992 45.0002 41.4846 42.9856 41.4846 40.4999C41.4846 38.0142 43.4992 35.9996 45.9848 35.9996H80.055C87.49 36.0024 93.5147 42.0298 93.5133 49.4648C93.5133 50.3478 93.4254 51.2295 93.2524 52.0974Z" fill="#3693FF"/>
</svg>
