<svg width="60" height="60" viewBox="0 0 60 60" fill="none" xmlns="http://www.w3.org/2000/svg">
<path d="M30.5231 0.00501883C13.9586 -0.294993 0.304824 12.893 0.00501543 29.4562C-0.294793 46.0194 12.8843 59.6949 29.4362 59.9949C45.9882 60.2949 59.6545 47.1069 59.9543 30.5312C60.2541 13.9681 47.075 0.29253 30.5231 0.00501883ZM29.5362 54.3697C16.1072 54.1197 5.37659 42.9942 5.62643 29.5562C5.86378 16.1182 16.9817 5.38023 30.4106 5.61774C43.8521 5.86775 54.5702 16.9932 54.3329 30.4312C54.0955 43.8693 42.9651 54.6072 29.5362 54.3697Z" fill="#345D9D"/>
<path d="M30.3756 8.12284C18.3208 7.91034 8.3397 17.5482 8.12734 29.6112C7.90248 41.6617 17.5338 51.6496 29.5886 51.8746C41.6435 52.0871 51.6246 42.4492 51.837 30.3987C52.0493 18.3358 42.4305 8.34785 30.3756 8.12284ZM39.3824 42.6992H19.4951L21.931 29.2112L19.1078 29.7987V27.4986L22.3558 26.8111L24.4669 15.2106H32.3994L30.6005 25.086L33.3737 24.4985V26.7986L30.1758 27.4611L28.327 37.6615H40.8565L39.3824 42.6992Z" fill="#345D9D"/>
</svg>
