<svg width="684" height="119" viewBox="0 0 684 119" fill="none" xmlns="http://www.w3.org/2000/svg">
<path d="M1 13.0563L5.73611 27.0843C10.4722 41.1123 19.9444 69.1684 29.4167 72.0071C38.8889 74.8459 48.3611 52.4674 57.8333 43.1948C67.3056 33.9222 76.7778 37.7556 86.25 45.0419C95.7222 52.3281 105.194 63.0673 114.667 76.8963C124.139 90.7253 133.611 107.644 143.083 105.135C152.556 102.626 162.028 80.6881 171.5 76.2032C180.972 71.7183 190.444 84.6861 199.917 89.5039C209.389 94.3218 218.861 90.9897 228.333 90.38C237.806 89.7704 247.278 91.8833 256.75 88.2406C266.222 84.598 275.694 75.1998 285.167 77.2115C294.639 79.2233 304.111 92.6449 313.583 98.1381C323.056 103.631 332.528 101.196 342 86.9894C351.472 72.783 360.944 46.8056 370.417 29.5428C379.889 12.2799 389.361 3.73175 398.833 17.4305C408.306 31.1293 417.778 67.0751 427.25 78.5779C436.722 90.0807 446.194 77.1405 455.667 75.462C465.139 73.7835 474.611 83.3667 484.083 71.4255C493.556 59.4844 503.028 26.019 512.5 14.2768C521.972 2.53461 531.444 12.5157 540.917 11.184C550.389 9.85228 559.861 -2.79226 569.333 2.13329C578.806 7.05885 588.278 29.5545 597.75 41.9703C607.222 54.3861 616.694 56.722 626.167 53.3384C635.639 49.9548 645.111 40.8517 654.583 38.4214C664.056 35.9911 673.528 40.2337 678.264 42.355L683 44.4763" stroke="#F044FF"/>
<path d="M1 80.1981L5.73611 78.8597C10.4722 77.5213 19.9444 74.8444 29.4167 64.5921C38.8889 54.3397 48.3611 36.5119 57.8333 33.5534C67.3056 30.5948 76.7778 42.5056 86.25 44.9862C95.7222 47.4669 105.194 40.5173 114.667 47.6899C124.139 54.8625 133.611 76.1574 143.083 72.6717C152.556 69.186 162.028 40.9197 171.5 45.2372C180.972 49.5546 190.444 86.4557 199.917 98.3518C209.389 110.248 218.861 97.139 228.333 95.4869C237.806 93.8349 247.278 103.64 256.75 93.2052C266.222 82.7707 275.694 52.0969 285.167 55.244C294.639 58.3911 304.111 95.3592 313.583 99.1085C323.056 102.858 332.528 73.3885 342 58.5815C351.472 43.7744 360.944 43.6298 370.417 57.6161C379.889 71.6024 389.361 99.7197 398.833 94.1409C408.306 88.5621 417.778 49.2872 427.25 30.799C436.722 12.3108 446.194 14.6091 455.667 16.1175C465.139 17.6259 474.611 18.3442 484.083 21.279C493.556 24.2137 503.028 29.3649 512.5 24.909C521.972 20.4531 531.444 6.39018 540.917 2.28569C550.389 -1.8188 559.861 4.03516 569.333 17.9726C578.806 31.91 588.278 53.9309 597.75 71.1127C607.222 88.2945 616.694 100.637 626.167 92.702C635.639 84.7669 645.111 56.554 654.583 57.4897C664.056 58.4253 673.528 88.5094 678.264 103.552L683 118.594" stroke="#FFAA2B"/>
<path d="M1 60.3279L5.73611 63.3781C10.4722 66.4283 19.9444 72.5286 29.4167 78.2862C38.8889 84.0437 48.3611 89.4585 57.8333 89.282C67.3056 89.1056 76.7778 83.3379 86.25 75.1361C95.7222 66.9343 105.194 56.2984 114.667 56.1503C124.139 56.0022 133.611 66.3421 143.083 66.4423C152.556 66.5426 162.028 56.4034 171.5 57.9338C180.972 59.4643 190.444 72.6646 199.917 82.9369C209.389 93.2092 218.861 100.554 228.333 105.508C237.806 110.462 247.278 113.026 256.75 102.958C266.222 92.8907 275.694 70.1913 285.167 57.9364C294.639 45.6815 304.111 43.8711 313.583 46.5564C323.056 49.2416 332.528 56.4223 342 49.209C351.472 41.9958 360.944 20.3884 370.417 22.5132C379.889 24.6381 389.361 50.4951 398.833 61.8515C408.306 73.2078 417.778 70.0636 427.25 64.3832C436.722 58.7028 446.194 50.4862 455.667 52.833C465.139 55.1798 474.611 68.09 484.083 75.9654C493.556 83.8408 503.028 86.6815 512.5 84.5901C521.972 82.4987 531.444 75.4753 540.917 71.3335C550.389 67.1916 559.861 65.9315 569.333 55.1152C578.806 44.2988 588.278 23.9264 597.75 20.2406C607.222 16.5547 616.694 29.5554 626.167 24.8948C635.639 20.2342 645.111 -2.08782 654.583 1.36027C664.056 4.80836 673.528 34.0266 678.264 48.6356L683 63.2447" stroke="#8085FF"/>
</svg>
