<svg width="16" height="16" viewBox="0 0 16 16" fill="none" xmlns="http://www.w3.org/2000/svg">
<path d="M6.02803 12.6688H9.97203C9.89322 13.1348 9.65194 13.5578 9.29096 13.8629C8.92999 14.1679 8.47264 14.3353 8.00003 14.3353C7.52742 14.3353 7.07007 14.1679 6.7091 13.8629C6.34812 13.5578 6.10683 13.1348 6.02803 12.6688ZM8.00003 1.33545C9.32611 1.33545 10.5979 1.86223 11.5356 2.79992C12.4732 3.7376 13 5.00937 13 6.33545V9.00212L13.9454 11.1088C13.9883 11.2051 14.0066 11.3107 13.9984 11.4159C13.9902 11.5211 13.9559 11.6225 13.8985 11.7111C13.8412 11.7996 13.7626 11.8725 13.67 11.9229C13.5773 11.9734 13.4735 11.9999 13.368 12.0001H2.6347C2.52905 12.0001 2.42509 11.9737 2.33227 11.9232C2.23946 11.8727 2.16074 11.7998 2.10329 11.7112C2.04584 11.6225 2.01149 11.5209 2.00335 11.4156C1.99521 11.3102 2.01355 11.2045 2.0567 11.1081L3.00003 9.00145V6.32678L3.00336 6.16012C3.04897 4.86535 3.59536 3.63884 4.52743 2.73898C5.4595 1.83912 6.70446 1.33551 8.00003 1.33545Z" fill="#9596A7"/>
</svg>
