<svg width="113" height="113" viewBox="0 0 113 113" fill="none" xmlns="http://www.w3.org/2000/svg">
<path d="M113 56.5C113 87.7041 87.7041 113 56.5 113C25.2959 113 0 87.7041 0 56.5C0 25.2959 25.2959 0 56.5 0C87.7041 0 113 25.2959 113 56.5ZM16.95 56.5C16.95 78.3429 34.6571 96.05 56.5 96.05C78.3429 96.05 96.05 78.3429 96.05 56.5C96.05 34.6571 78.3429 16.95 56.5 16.95C34.6571 16.95 16.95 34.6571 16.95 56.5Z" fill="#2B2B2B"/>
<path d="M56.5001 0C65.7165 1.09905e-07 74.793 2.25461 82.9382 6.56724C91.0833 10.8799 98.0498 17.1196 103.23 24.7423C108.411 32.365 111.648 41.1393 112.659 50.3C113.67 59.4608 112.425 68.7298 109.033 77.299C105.64 85.8682 100.202 93.4774 93.194 99.4629C86.1858 105.449 77.8197 109.629 68.8252 111.639C59.8308 113.65 50.4811 113.429 41.5913 110.997C32.7016 108.566 24.5417 103.996 17.8232 97.6867L29.4263 85.3307C34.1292 89.7471 39.8411 92.9459 46.064 94.6482C52.2868 96.3506 58.8316 96.5049 65.1277 95.0975C71.4238 93.6902 77.2801 90.764 82.1858 86.5741C87.0916 82.3841 90.8979 77.0578 93.2728 71.0593C95.6478 65.0609 96.5192 58.5725 95.8113 52.16C95.1033 45.7475 92.8374 39.6055 89.2112 34.2696C85.5849 28.9337 80.7084 24.5659 75.0068 21.5471C69.3052 18.5282 62.9516 16.95 56.5001 16.95V0Z" fill="url(#paint0_linear_444_3554)"/>
<path d="M46.17 55.406C46.008 53.462 44.748 51.59 41.922 51.59C38.52 51.59 37.116 53.84 37.116 58.34C37.116 62.264 38.088 65.072 42.048 65.072C44.874 65.072 46.53 63.272 46.53 60.662C46.53 57.926 44.91 56.432 42.624 56.432C41.418 56.432 40.356 56.936 39.834 57.782C39.852 55.244 40.392 54.074 41.778 54.074C42.696 54.074 43.128 54.542 43.308 55.406H46.17ZM41.886 58.862C43.038 58.862 43.632 59.582 43.632 60.68C43.632 61.796 42.966 62.462 41.922 62.462C40.752 62.462 40.086 61.778 40.086 60.626C40.086 59.438 40.914 58.862 41.886 58.862ZM48.1629 64.82H57.1989V62.318H52.3389C54.4269 60.716 57.0009 58.412 57.0009 55.532C57.0009 53.318 55.6689 51.572 52.6809 51.572C50.2869 51.572 48.2169 52.94 48.1269 56.126H51.0969C51.0969 54.884 51.6369 54.164 52.5549 54.164C53.4909 54.164 53.9229 54.776 53.9229 55.73C53.9229 57.944 50.9529 60.23 48.1629 62.534V64.82ZM58.3021 55.172C58.3021 57.17 59.5981 58.214 61.3081 58.214C63.0181 58.214 64.2961 57.17 64.2961 55.172C64.2961 53.174 63.0181 52.13 61.3081 52.13C59.5981 52.13 58.3021 53.174 58.3021 55.172ZM61.2901 53.93C61.8301 53.93 62.1721 54.308 62.1721 55.172C62.1721 56.018 61.8301 56.396 61.2901 56.396C60.7501 56.396 60.4261 56.018 60.4261 55.172C60.4261 54.308 60.7501 53.93 61.2901 53.93ZM60.6241 65H63.5941L70.5241 52.328H67.5541L60.6241 65ZM66.8701 62.156C66.8701 64.154 68.1481 65.198 69.8581 65.198C71.5681 65.198 72.8461 64.154 72.8461 62.156C72.8461 60.14 71.5681 59.114 69.8581 59.114C68.1481 59.114 66.8701 60.14 66.8701 62.156ZM69.8401 60.914C70.3801 60.914 70.7221 61.31 70.7221 62.156C70.7221 63.002 70.3801 63.38 69.8401 63.38C69.3001 63.38 68.9761 63.002 68.9761 62.156C68.9761 61.31 69.3001 60.914 69.8401 60.914Z" fill="white"/>
<defs>
<linearGradient id="paint0_linear_444_3554" x1="56.5" y1="-4.25855e-07" x2="24.5" y2="113" gradientUnits="userSpaceOnUse">
<stop stop-color="#2A70D8"/>
<stop offset="1" stop-color="#3BD7E1"/>
</linearGradient>
</defs>
</svg>
