<svg width="24" height="24" viewBox="0 0 24 24" fill="none" xmlns="http://www.w3.org/2000/svg">
<path d="M12 0C5.3726 0 0 5.3726 0 12C0 18.6274 5.3726 24 12 24C18.6274 24 24 18.6274 24 12C23.9924 5.37574 18.6243 0.00758581 12 0ZM17.8879 10.6801C17.4417 11.0743 16.9263 11.3824 16.3679 11.5885C15.9726 11.7164 15.6111 11.9312 15.3098 12.2174C14.9098 13.1698 15.1554 14.2713 15.9227 14.9637C15.9488 14.9899 15.9734 15.0179 15.9962 15.0474C16.9614 16.2842 16.8633 18.0438 15.7668 19.1657C14.5528 20.3776 12.5865 20.3776 11.3722 19.1657C10.6039 18.2437 10.3528 16.9962 10.7044 15.8486C10.7894 15.1855 10.5626 14.5201 10.0899 14.0471C9.62093 13.5951 8.97064 13.383 8.32532 13.4711C7.17777 13.8222 5.93055 13.5703 5.009 12.8017C3.79553 11.5898 3.79448 9.6238 5.00639 8.41059C5.00717 8.40955 5.00822 8.40876 5.009 8.40798C6.1304 7.31065 7.89083 7.21256 9.12732 8.17857C9.99289 9.03394 11.2752 9.32194 11.9566 8.86339C12.2438 8.56283 12.4588 8.20107 12.5859 7.8053C12.7921 7.24735 13.0997 6.73256 13.4934 6.28682C14.7068 5.07335 16.6739 5.07335 17.8874 6.28656C19.1011 7.50003 19.1011 9.46712 17.8879 10.6806V10.6801Z" fill="#2B98D6"/>
<path d="M14.6784 7.39816C14.4502 7.69123 14.2697 8.01851 14.1441 8.368C13.9151 9.05703 13.4924 9.66563 12.9269 10.1211C11.3324 10.9773 9.36089 10.6462 8.13349 9.31614C7.59153 8.95261 6.86908 9.01592 6.39859 9.4683C5.8676 9.99853 5.86709 10.8591 6.39732 11.3901C6.39783 11.3904 6.39808 11.3909 6.39859 11.3911C6.71872 11.71 7.17465 11.7605 8.1483 11.5823C8.34563 11.5466 8.54577 11.5285 8.74643 11.5285C9.72186 11.5443 10.6549 11.9298 11.3572 12.6068C12.2081 13.4577 12.6027 14.6632 12.4194 15.8526C12.2382 16.8239 12.2887 17.2814 12.6091 17.6023C13.1404 18.1326 14.0007 18.1326 14.5319 17.6023C14.9909 17.1119 15.0363 16.3647 14.6399 15.8224C13.3436 14.5927 13.0316 12.6469 13.8786 11.0736C14.3341 10.5083 14.9426 10.0861 15.6317 9.85787C15.9816 9.73175 16.3092 9.55024 16.602 9.32048C17.1327 8.78948 17.1327 7.92865 16.6017 7.3979C16.0705 6.86715 15.2099 6.86741 14.6792 7.39841L14.6784 7.39816Z" fill="#2B98D6"/>
</svg>
