<svg width="21" height="21" viewBox="0 0 21 21" fill="none" xmlns="http://www.w3.org/2000/svg">
<path d="M13.6676 10.7418V15.2335C13.6676 17.1835 12.3676 18.4752 10.426 18.4752H5.24264C3.30098 18.4752 2.00098 17.1835 2.00098 15.2335L2.00098 8.75851C2.00098 6.80851 3.30098 5.51685 5.24264 5.51685H8.43431C9.29264 5.51685 10.1176 5.85851 10.726 6.46685L12.7176 8.45018C13.326 9.05851 13.6676 9.88351 13.6676 10.7418Z" fill="#12C4A0"/>
<path d="M18.6676 7.04168V11.5333C18.6676 13.475 17.3676 14.775 15.4259 14.775H14.5009V10.7417C14.5009 9.66668 14.0676 8.61668 13.3092 7.85835L11.3176 5.87502C10.5592 5.11668 9.50924 4.68335 8.43424 4.68335H7.01758C7.16758 2.95002 8.42591 1.80835 10.2426 1.80835L13.4342 1.80835C14.2926 1.80835 15.1176 2.15002 15.7259 2.75835L17.7176 4.75002C18.3259 5.35835 18.6676 6.18335 18.6676 7.04168Z" fill="#12C4A0"/>
</svg>
