<svg width="496" height="496" viewBox="0 0 496 496" fill="none" xmlns="http://www.w3.org/2000/svg">
<g clip-path="url(#clip0_2819_14405)">
<path d="M248 0C111.042 0 0 111.042 0 248C0 384.958 111.042 496 248 496C384.958 496 496 384.958 496 248C496 111.042 384.958 0 248 0ZM163.308 138.405H332.692C363.795 138.405 383.573 172.05 367.929 199.165L263.376 380.308C261.814 383.002 259.571 385.239 256.873 386.794C254.174 388.348 251.114 389.167 248 389.167C244.886 389.167 241.826 388.348 239.127 386.794C236.429 385.239 234.186 383.002 232.624 380.308L128.113 199.165C112.447 172.009 132.184 138.405 163.308 138.405ZM263.417 169.322V325.975L286.192 281.997L341.083 183.706C341.923 182.238 342.361 180.574 342.352 178.882C342.344 177.19 341.889 175.531 341.033 174.072C340.178 172.612 338.952 171.404 337.48 170.57C336.008 169.736 334.342 169.306 332.651 169.322H263.417ZM163.267 169.363C161.579 169.345 159.916 169.773 158.446 170.603C156.976 171.433 155.752 172.637 154.896 174.092C154.041 175.547 153.584 177.203 153.574 178.891C153.563 180.579 153.998 182.24 154.835 183.706L209.767 281.955L232.541 325.975V169.363H163.267Z" fill="#9596A7"/>
</g>
<defs>
<clipPath id="clip0_2819_14405">
<rect width="496" height="496" fill="white"/>
</clipPath>
</defs>
</svg>
