<svg width="21" height="21" viewBox="0 0 21 21" fill="none" xmlns="http://www.w3.org/2000/svg">
<path d="M15.3335 2.00024L5.3335 2.00024C3.95016 2.00024 2.8335 3.10858 2.8335 4.47524L2.8335 13.5669C2.8335 14.9336 3.95016 16.0419 5.3335 16.0419H5.96683C6.6335 16.0419 7.26683 16.3002 7.7335 16.7669L9.1585 18.1752C9.8085 18.8169 10.8668 18.8169 11.5168 18.1752L12.9418 16.7669C13.4085 16.3002 14.0502 16.0419 14.7085 16.0419H15.3335C16.7168 16.0419 17.8335 14.9336 17.8335 13.5669V4.47524C17.8335 3.10858 16.7168 2.00024 15.3335 2.00024ZM10.3335 5.12524C11.4085 5.12524 12.2752 5.99191 12.2752 7.06691C12.2752 8.14191 11.4085 9.00858 10.3335 9.00858C9.2585 9.00858 8.39183 8.13358 8.39183 7.06691C8.39183 5.99191 9.2585 5.12524 10.3335 5.12524ZM12.5668 12.8836H8.10016C7.42516 12.8836 7.0335 12.1336 7.4085 11.5752C7.97516 10.7336 9.07516 10.1669 10.3335 10.1669C11.5918 10.1669 12.6918 10.7336 13.2585 11.5752C13.6335 12.1336 13.2335 12.8836 12.5668 12.8836Z" fill="#12C4A0"/>
</svg>
