<svg width="283" height="55" viewBox="0 0 283 55" fill="none" xmlns="http://www.w3.org/2000/svg">
<path d="M26.6198 49.6442L19.3501 46.6198C15.5359 45.033 7.18127 45.2645 4.47995 47.0318C2.93253 48.0442 2 49.7687 2 51.6178V55H281V36.6092C281 37.091 279.614 35.1152 277.639 32.0506C275.471 28.687 258.564 28.699 256.593 32.0727L255.983 33.1163C254.361 35.8933 241.069 36.2625 237.646 33.6257L228.357 26.4721C227.489 25.8031 224.117 25.8968 223.705 26.6014C223.259 27.3662 219.478 27.3837 218.947 26.6235L202.489 3.06269C201.469 1.60149 194.167 1.66542 193.455 3.1418L190.93 8.37195C190.568 9.12301 186.798 9.11121 186.492 8.35805C186.204 7.64926 182.739 7.57826 182.107 8.2682L164.199 27.839C162.82 29.3463 155.247 29.1905 154.622 27.6419C154.142 26.4564 149.105 25.9668 146.244 26.8276L135.157 30.1632C131.427 31.2853 124.908 30.8628 123.194 29.388L117.394 24.3969C116.699 23.799 113.719 23.8467 113.257 24.463C112.807 25.0618 109.946 25.1305 109.161 24.5614L102.865 19.9992C100.283 18.1277 90.9728 18.2531 89.0041 20.1859L70.3712 38.4782C69.997 38.8456 68.1391 38.7895 68.0359 38.4077C67.9314 38.021 66.0393 37.9708 65.6926 38.3455L54.4798 50.4637C52.9455 52.1219 45.4951 52.5511 41.8773 51.1897L36.3359 49.1045C34.9465 48.5817 32.0831 48.7511 31.5164 49.3896C30.9345 50.0452 27.956 50.2001 26.6198 49.6442Z" fill="#FD5353" fill-opacity="0.15"/>
<path d="M2 48.6543L4.47995 47.0318C7.18127 45.2645 15.5359 45.033 19.3501 46.6198L26.6198 49.6442C27.956 50.2001 30.9345 50.0452 31.5164 49.3896C32.0831 48.7511 34.9465 48.5817 36.3359 49.1045L41.8773 51.1897C45.4951 52.5511 52.9455 52.1219 54.4798 50.4637L65.6926 38.3455C66.0393 37.9708 67.9314 38.021 68.0359 38.4077C68.1391 38.7895 69.997 38.8456 70.3712 38.4782L89.0041 20.1859C90.9728 18.2531 100.283 18.1277 102.865 19.9992L109.161 24.5614C109.946 25.1305 112.807 25.0618 113.257 24.463C113.719 23.8467 116.699 23.799 117.394 24.3969L123.194 29.388C124.908 30.8628 131.427 31.2853 135.157 30.1632L146.244 26.8276C149.105 25.9668 154.142 26.4564 154.622 27.6419C155.247 29.1905 162.82 29.3463 164.199 27.839L182.107 8.2682C182.739 7.57826 186.204 7.64926 186.492 8.35805C186.798 9.11121 190.568 9.12301 190.93 8.37195L193.455 3.1418C194.167 1.66542 201.469 1.60149 202.489 3.06269L218.947 26.6235C219.478 27.3837 223.259 27.3662 223.705 26.6014C224.117 25.8968 227.489 25.8031 228.357 26.4721L237.646 33.6257C241.069 36.2625 254.361 35.8933 255.983 33.1163L256.593 32.0727C258.564 28.699 275.471 28.687 277.639 32.0506C279.614 35.1152 281 37.091 281 36.6092" stroke="#FF3B30" strokeWidth="4"/>
</svg>
