<svg width="113" height="113" viewBox="0 0 113 113" fill="none" xmlns="http://www.w3.org/2000/svg">
<path d="M113 56.5C113 87.7041 87.7041 113 56.5 113C25.2959 113 0 87.7041 0 56.5C0 25.2959 25.2959 0 56.5 0C87.7041 0 113 25.2959 113 56.5ZM16.95 56.5C16.95 78.3429 34.6571 96.05 56.5 96.05C78.3429 96.05 96.05 78.3429 96.05 56.5C96.05 34.6571 78.3429 16.95 56.5 16.95C34.6571 16.95 16.95 34.6571 16.95 56.5Z" fill="#2B2B2B"/>
<path d="M56.5 0C67.8259 1.3506e-07 78.8903 3.40387 88.2577 9.76995C97.6251 16.136 104.863 25.1704 109.032 35.701C113.202 46.2315 114.11 57.772 111.639 68.8251C109.169 79.8782 103.433 89.9336 95.1769 97.6867L83.5738 85.3307C89.3532 79.9035 93.368 72.8647 95.0975 65.1276C96.827 57.3904 96.1912 49.312 93.2727 41.9407C90.3541 34.5693 85.2876 28.2452 78.7304 23.789C72.1732 19.3327 64.4281 16.95 56.5 16.95V0Z" fill="url(#paint0_linear_444_3545)"/>
<path d="M36.918 55.568C36.966 54.284 37.386 53.294 38.178 52.598C38.97 51.902 40.044 51.554 41.4 51.554C42.3 51.554 43.068 51.71 43.704 52.022C44.352 52.334 44.838 52.76 45.162 53.3C45.498 53.84 45.666 54.446 45.666 55.118C45.666 55.91 45.468 56.558 45.072 57.062C44.676 57.554 44.214 57.89 43.686 58.07V58.142C44.37 58.37 44.91 58.748 45.306 59.276C45.702 59.804 45.9 60.482 45.9 61.31C45.9 62.054 45.726 62.714 45.378 63.29C45.042 63.854 44.544 64.298 43.884 64.622C43.236 64.946 42.462 65.108 41.562 65.108C40.122 65.108 38.97 64.754 38.106 64.046C37.254 63.338 36.804 62.27 36.756 60.842H39.744C39.756 61.37 39.906 61.79 40.194 62.102C40.482 62.402 40.902 62.552 41.454 62.552C41.922 62.552 42.282 62.42 42.534 62.156C42.798 61.88 42.93 61.52 42.93 61.076C42.93 60.5 42.744 60.086 42.372 59.834C42.012 59.57 41.43 59.438 40.626 59.438H40.05V56.936H40.626C41.238 56.936 41.73 56.834 42.102 56.63C42.486 56.414 42.678 56.036 42.678 55.496C42.678 55.064 42.558 54.728 42.318 54.488C42.078 54.248 41.748 54.128 41.328 54.128C40.872 54.128 40.53 54.266 40.302 54.542C40.086 54.818 39.96 55.16 39.924 55.568H36.918ZM49.8684 57.944C48.7404 57.344 48.1764 56.402 48.1764 55.118C48.1764 54.47 48.3444 53.882 48.6804 53.354C49.0164 52.814 49.5264 52.388 50.2104 52.076C50.8944 51.752 51.7344 51.59 52.7304 51.59C53.7264 51.59 54.5604 51.752 55.2324 52.076C55.9164 52.388 56.4264 52.814 56.7624 53.354C57.0984 53.882 57.2664 54.47 57.2664 55.118C57.2664 55.766 57.1104 56.33 56.7984 56.81C56.4984 57.29 56.0904 57.668 55.5744 57.944C56.2224 58.256 56.7204 58.688 57.0684 59.24C57.4164 59.78 57.5904 60.416 57.5904 61.148C57.5904 62 57.3744 62.738 56.9424 63.362C56.5104 63.974 55.9224 64.442 55.1784 64.766C54.4464 65.09 53.6304 65.252 52.7304 65.252C51.8304 65.252 51.0084 65.09 50.2644 64.766C49.5324 64.442 48.9504 63.974 48.5184 63.362C48.0864 62.738 47.8704 62 47.8704 61.148C47.8704 60.404 48.0444 59.762 48.3924 59.222C48.7404 58.67 49.2324 58.244 49.8684 57.944ZM54.2784 55.586C54.2784 55.094 54.1344 54.716 53.8464 54.452C53.5704 54.176 53.1984 54.038 52.7304 54.038C52.2624 54.038 51.8844 54.176 51.5964 54.452C51.3204 54.728 51.1824 55.112 51.1824 55.604C51.1824 56.072 51.3264 56.444 51.6144 56.72C51.9024 56.984 52.2744 57.116 52.7304 57.116C53.1864 57.116 53.5584 56.978 53.8464 56.702C54.1344 56.426 54.2784 56.054 54.2784 55.586ZM52.7304 59.276C52.1664 59.276 51.7104 59.432 51.3624 59.744C51.0144 60.044 50.8404 60.464 50.8404 61.004C50.8404 61.508 51.0084 61.922 51.3444 62.246C51.6924 62.57 52.1544 62.732 52.7304 62.732C53.3064 62.732 53.7564 62.57 54.0804 62.246C54.4164 61.922 54.5844 61.508 54.5844 61.004C54.5844 60.476 54.4104 60.056 54.0624 59.744C53.7264 59.432 53.2824 59.276 52.7304 59.276ZM59.1283 55.172C59.1283 54.2 59.4043 53.45 59.9563 52.922C60.5203 52.394 61.2463 52.13 62.1343 52.13C63.0223 52.13 63.7423 52.394 64.2943 52.922C64.8463 53.45 65.1223 54.2 65.1223 55.172C65.1223 56.144 64.8463 56.894 64.2943 57.422C63.7423 57.95 63.0223 58.214 62.1343 58.214C61.2463 58.214 60.5203 57.95 59.9563 57.422C59.4043 56.894 59.1283 56.144 59.1283 55.172ZM71.3503 52.328L64.4203 65H61.4503L68.3803 52.328H71.3503ZM62.1163 53.93C61.5403 53.93 61.2523 54.344 61.2523 55.172C61.2523 55.988 61.5403 56.396 62.1163 56.396C62.3923 56.396 62.6083 56.294 62.7643 56.09C62.9203 55.886 62.9983 55.58 62.9983 55.172C62.9983 54.344 62.7043 53.93 62.1163 53.93ZM67.6963 62.156C67.6963 61.184 67.9723 60.434 68.5243 59.906C69.0763 59.378 69.7963 59.114 70.6843 59.114C71.5723 59.114 72.2923 59.378 72.8443 59.906C73.3963 60.434 73.6723 61.184 73.6723 62.156C73.6723 63.128 73.3963 63.878 72.8443 64.406C72.2923 64.934 71.5723 65.198 70.6843 65.198C69.7963 65.198 69.0763 64.934 68.5243 64.406C67.9723 63.878 67.6963 63.128 67.6963 62.156ZM70.6663 60.914C70.3903 60.914 70.1743 61.016 70.0183 61.22C69.8743 61.424 69.8023 61.736 69.8023 62.156C69.8023 62.972 70.0903 63.38 70.6663 63.38C70.9423 63.38 71.1583 63.278 71.3143 63.074C71.4703 62.87 71.5483 62.564 71.5483 62.156C71.5483 61.748 71.4703 61.442 71.3143 61.238C71.1583 61.022 70.9423 60.914 70.6663 60.914Z" fill="white"/>
<defs>
<linearGradient id="paint0_linear_444_3545" x1="56.5" y1="0" x2="57" y2="81" gradientUnits="userSpaceOnUse">
<stop stop-color="#FF6175"/>
<stop offset="1" stop-color="#FFB661"/>
</linearGradient>
</defs>
</svg>
