<svg width="13" height="13" viewBox="0 0 13 13" fill="none" xmlns="http://www.w3.org/2000/svg">
<path d="M5.66673 0.666748C6.59871 0.666711 7.51216 0.927157 8.30398 1.4187C9.09581 1.91024 9.73449 2.6133 10.148 3.44855C10.5614 4.2838 10.7332 5.21799 10.6439 6.14569C10.5547 7.07339 10.2079 7.95767 9.64273 8.69875L12.8047 11.8621C12.9243 11.9821 12.9937 12.143 12.9989 12.3123C13.0041 12.4816 12.9446 12.6466 12.8326 12.7736C12.7205 12.9006 12.5644 12.9803 12.3957 12.9963C12.2271 13.0124 12.0587 12.9637 11.9247 12.8601L11.8621 12.8047L8.69873 9.64275C8.0674 10.1241 7.3305 10.4483 6.54902 10.5883C5.76754 10.7284 4.96395 10.6803 4.20473 10.4481C3.44551 10.216 2.7525 9.80632 2.18303 9.25311C1.61357 8.69991 1.18402 8.01905 0.929947 7.26687C0.67587 6.5147 0.604563 5.71283 0.721925 4.92762C0.839288 4.14241 1.14195 3.39644 1.60486 2.75143C2.06777 2.10642 2.67762 1.58092 3.38396 1.21841C4.09029 0.855892 4.8728 0.66679 5.66673 0.666748ZM5.66673 2.00008C4.69427 2.00008 3.76164 2.38639 3.074 3.07402C2.38637 3.76166 2.00006 4.69429 2.00006 5.66675C2.00006 6.63921 2.38637 7.57184 3.074 8.25947C3.76164 8.94711 4.69427 9.33341 5.66673 9.33341C6.63919 9.33341 7.57182 8.94711 8.25945 8.25947C8.94709 7.57184 9.3334 6.63921 9.3334 5.66675C9.3334 4.69429 8.94709 3.76166 8.25945 3.07402C7.57182 2.38639 6.63919 2.00008 5.66673 2.00008Z" fill="#9596A7"/>
</svg>
